<svg width="20" height="20" viewBox="0 0 20 20" fill="none" xmlns="http://www.w3.org/2000/svg">
<path d="M9.37744 6.87598C9.37744 6.71022 9.31159 6.55125 9.19438 6.43403C9.07717 6.31682 8.9182 6.25098 8.75244 6.25098C8.58668 6.25098 8.42771 6.31682 8.3105 6.43403C8.19329 6.55125 8.12744 6.71022 8.12744 6.87598V7.66848L7.44119 7.27223C7.37008 7.23054 7.29143 7.20333 7.20977 7.19216C7.1281 7.181 7.04504 7.1861 6.96535 7.20716C6.88566 7.22823 6.81093 7.26485 6.74545 7.31492C6.67998 7.36499 6.62505 7.42752 6.58384 7.4989C6.54263 7.57028 6.51594 7.64911 6.50531 7.73084C6.49469 7.81258 6.50034 7.89561 6.52194 7.97516C6.54353 8.0547 6.58065 8.12919 6.63115 8.19433C6.68165 8.25948 6.74454 8.31399 6.81619 8.35473L7.50244 8.75098L6.81619 9.14723C6.74454 9.18797 6.68165 9.24248 6.63115 9.30762C6.58065 9.37276 6.54353 9.44725 6.52194 9.52679C6.50034 9.60634 6.49469 9.68937 6.50531 9.77111C6.51594 9.85285 6.54263 9.93167 6.58384 10.0031C6.62505 10.0744 6.67998 10.137 6.74545 10.187C6.81093 10.2371 6.88566 10.2737 6.96535 10.2948C7.04504 10.3159 7.1281 10.321 7.20977 10.3098C7.29143 10.2986 7.37008 10.2714 7.44119 10.2297L8.12744 9.83348V10.626C8.12744 10.7917 8.19329 10.9507 8.3105 11.0679C8.42771 11.1851 8.58668 11.251 8.75244 11.251C8.9182 11.251 9.07717 11.1851 9.19438 11.0679C9.31159 10.9507 9.37744 10.7917 9.37744 10.626V9.83348L10.0637 10.2297C10.1348 10.2714 10.2134 10.2986 10.2951 10.3098C10.3768 10.321 10.4598 10.3159 10.5395 10.2948C10.6192 10.2737 10.694 10.2371 10.7594 10.187C10.8249 10.137 10.8798 10.0744 10.921 10.0031C10.9623 9.93167 10.9889 9.85285 10.9996 9.77111C11.0102 9.68937 11.0045 9.60634 10.9829 9.52679C10.9614 9.44725 10.9242 9.37276 10.8737 9.30762C10.8232 9.24248 10.7603 9.18797 10.6887 9.14723L10.0024 8.75098L10.6887 8.35473C10.7603 8.31399 10.8232 8.25948 10.8737 8.19433C10.9242 8.12919 10.9614 8.0547 10.9829 7.97516C11.0045 7.89561 11.0102 7.81258 10.9996 7.73084C10.9889 7.64911 10.9623 7.57028 10.921 7.4989C10.8798 7.42752 10.8249 7.36499 10.7594 7.31492C10.694 7.26485 10.6192 7.22823 10.5395 7.20716C10.4598 7.1861 10.3768 7.181 10.2951 7.19216C10.2134 7.20333 10.1348 7.23054 10.0637 7.27223L9.37744 7.66848V6.87598ZM6.87744 12.501C6.71168 12.501 6.55271 12.5668 6.4355 12.684C6.31829 12.8012 6.25244 12.9602 6.25244 13.126C6.25244 13.2917 6.31829 13.4507 6.4355 13.5679C6.55271 13.6851 6.71168 13.751 6.87744 13.751H13.1274C13.2932 13.751 13.4522 13.6851 13.5694 13.5679C13.6866 13.4507 13.7524 13.2917 13.7524 13.126C13.7524 12.9602 13.6866 12.8012 13.5694 12.684C13.4522 12.5668 13.2932 12.501 13.1274 12.501H6.87744ZM6.87744 15.001C6.71168 15.001 6.55271 15.0668 6.4355 15.184C6.31829 15.3012 6.25244 15.4602 6.25244 15.626C6.25244 15.7917 6.31829 15.9507 6.4355 16.0679C6.55271 16.1851 6.71168 16.251 6.87744 16.251H13.1274C13.2932 16.251 13.4522 16.1851 13.5694 16.0679C13.6866 15.9507 13.7524 15.7917 13.7524 15.626C13.7524 15.4602 13.6866 15.3012 13.5694 15.184C13.4522 15.0668 13.2932 15.001 13.1274 15.001H6.87744Z" fill="#212529"/>
<path d="M17.5024 17.501V5.62598L11.8774 0.000976562H5.00244C4.3394 0.000976563 3.70352 0.264369 3.23467 0.73321C2.76583 1.20205 2.50244 1.83794 2.50244 2.50098V17.501C2.50244 18.164 2.76583 18.7999 3.23467 19.2687C3.70352 19.7376 4.3394 20.001 5.00244 20.001H15.0024C15.6655 20.001 16.3014 19.7376 16.7702 19.2687C17.239 18.7999 17.5024 18.164 17.5024 17.501ZM11.8774 3.75098C11.8774 4.24826 12.075 4.72517 12.4266 5.0768C12.7782 5.42843 13.2552 5.62598 13.7524 5.62598H16.2524V17.501C16.2524 17.8325 16.1207 18.1504 15.8863 18.3849C15.6519 18.6193 15.334 18.751 15.0024 18.751H5.00244C4.67092 18.751 4.35298 18.6193 4.11856 18.3849C3.88414 18.1504 3.75244 17.8325 3.75244 17.501V2.50098C3.75244 2.16946 3.88414 1.85151 4.11856 1.61709C4.35298 1.38267 4.67092 1.25098 5.00244 1.25098H11.8774V3.75098Z" fill="#212529"/>
</svg>
